<?xml version="1.0" encoding="UTF-8"?>
<svg xmlns="http://www.w3.org/2000/svg" xmlns:xlink="http://www.w3.org/1999/xlink" xmlns:svg="http://www.w3.org/2000/svg" xmlns:rdf="http://www.w3.org/1999/02/22-rdf-syntax-ns#" xmlns:dc="http://purl.org/dc/elements/1.1/" xmlns:cc="http://creativecommons.org/ns#" version="1.1" viewBox="0 0 762.7 476.5">
  <defs>
    <style>
      .cls-1 {
        fill: #e0e0e0;
      }

      .cls-2 {
        font-size: 13px;
      }

      .cls-2, .cls-3, .cls-4, .cls-5, .cls-6 {
        isolation: isolate;
      }

      .cls-2, .cls-4 {
        font-family: Arial-BoldMT, Arial;
        font-weight: 700;
      }

      .cls-2, .cls-7, .cls-8, .cls-9 {
        fill: #fff;
      }

      .cls-10, .cls-11, .cls-12, .cls-13 {
        stroke: #8b3a8b;
      }

      .cls-10, .cls-11, .cls-14 {
        fill: none;
      }

      .cls-10, .cls-12, .cls-14 {
        stroke-width: 1.4px;
      }

      .cls-11 {
        stroke-width: 1.6px;
      }

      .cls-12, .cls-13 {
        fill: #e8d5f0;
      }

      .cls-13 {
        stroke-width: 1.3px;
      }

      .cls-15 {
        fill: url(#linear-gradient);
      }

      .cls-16 {
        fill: #4caf50;
        opacity: .3;
        stroke: #4caf50;
      }

      .cls-16, .cls-7, .cls-8, .cls-9 {
        stroke-miterlimit: 10;
      }

      .cls-4, .cls-5 {
        font-size: 14px;
      }

      .cls-4, .cls-5, .cls-6, .cls-17 {
        fill: #333;
      }

      .cls-5 {
        font-family: ArialMT, Arial;
      }

      .cls-7 {
        stroke-width: .5px;
      }

      .cls-7, .cls-8, .cls-9 {
        stroke: #000;
      }

      .cls-8 {
        stroke-width: .6px;
      }

      .cls-9 {
        stroke-width: .7px;
      }

      .cls-18 {
        fill: #8b3a8b;
      }

      .cls-19 {
        fill: #e74c3c;
      }

      .cls-6 {
        font-family: CourierNewPSMT, 'Courier New';
        font-size: 12px;
      }

      .cls-14 {
        stroke: #fff;
      }
    </style>
    <linearGradient id="linear-gradient" x1="229.4" y1="305.6" x2="229.4" y2="306.4" gradientTransform="translate(-9130.6 165447.8) scale(40 -540)" gradientUnits="userSpaceOnUse">
      <stop offset="0" stop-color="#4caf50"/>
      <stop offset=".5" stop-color="orange"/>
      <stop offset="1" stop-color="#e74c3c"/>
    </linearGradient>
  </defs>
  <!-- Generator: Adobe Illustrator 28.7.10, SVG Export Plug-In . SVG Version: 1.2.0 Build 236)  -->
  <g>
    <g id="Layer_1">
      <g id="Layer_1-2" data-name="Layer_1">
        <g id="svg1742">
          <rect id="rect1654" class="cls-1" x="648.6" y="26.7" width="91.4" height="442.7" rx="3" ry="3"/>
          <path class="cls-1" d="M0,0"/>
          <g id="text1594" class="cls-3">
            <g class="cls-3">
              <text class="cls-4" transform="translate(18.3 280.7) rotate(-90)"><tspan x="0" y="0">Lessons</tspan></text>
            </g>
          </g>
          <path id="rect1596" class="cls-15" d="M26.5,38.6h34c1.7,0,3,1.1,3,2.4v422.7c0,1.3-1.3,2.4-3,2.4H26.5c-1.7,0-3-1.1-3-2.4V41c0-1.3,1.3-2.4,3-2.4Z"/>
          <path id="path1598" class="cls-19" d="M13.5,39.7l30-30,30,30H13.5Z"/>
          <g id="text1600" class="cls-3">
            <g class="cls-3">
              <text class="cls-2" transform="translate(26.9 65.6)"><tspan x="0" y="0">17-18</tspan></text>
            </g>
          </g>
          <g id="text1602" class="cls-3">
            <g class="cls-3">
              <text class="cls-2" transform="translate(26.9 94.5)"><tspan x="0" y="0">15-16</tspan></text>
            </g>
          </g>
          <g id="text1604" class="cls-3">
            <g class="cls-3">
              <text class="cls-2" transform="translate(36.3 133.8)"><tspan x="0" y="0">14</tspan></text>
            </g>
          </g>
          <g id="text1606" class="cls-3">
            <g class="cls-3">
              <text class="cls-2" transform="translate(36.3 171.1)"><tspan x="0" y="0">13</tspan></text>
            </g>
          </g>
          <g id="text1608" class="cls-3">
            <g class="cls-3">
              <text class="cls-2" transform="translate(36.3 199.4)"><tspan x="0" y="0">12</tspan></text>
            </g>
          </g>
          <g id="text1610" class="cls-3">
            <g class="cls-3">
              <text class="cls-2" transform="translate(36.7 239.4)"><tspan x="0" y="0">11</tspan></text>
            </g>
          </g>
          <g id="text1612" class="cls-3">
            <g class="cls-3">
              <text class="cls-2" transform="translate(30.5 337.3)"><tspan x="0" y="0">9-10</tspan></text>
            </g>
          </g>
          <g id="text1614" class="cls-3">
            <g class="cls-3">
              <text class="cls-2" transform="translate(39.9 364.6)"><tspan x="0" y="0">8</tspan></text>
            </g>
          </g>
          <g id="text1616" class="cls-3">
            <g class="cls-3">
              <text class="cls-2" transform="translate(39.9 397)"><tspan x="0" y="0">7</tspan></text>
            </g>
          </g>
          <g id="text1618" class="cls-3">
            <g class="cls-3">
              <text class="cls-2" transform="translate(34.1 443.8)"><tspan x="0" y="0">1-6</tspan></text>
            </g>
          </g>
          <g id="text1620" class="cls-3">
            <g class="cls-3">
              <text class="cls-4" transform="translate(745.9 138.8) rotate(90)"><tspan x="0" y="0">Open Source Python Packages</tspan></text>
            </g>
          </g>
          <g id="text1624" class="cls-3">
            <g class="cls-3">
              <text class="cls-6" transform="translate(669.3 91.9)"><tspan x="0" y="0">pysindy</tspan></text>
            </g>
          </g>
          <g id="text1632" class="cls-3">
            <g class="cls-3">
              <text class="cls-6" transform="translate(658.5 189.7)"><tspan x="0" y="0">tensorflow</tspan></text>
            </g>
            <g class="cls-3">
              <text class="cls-6" transform="translate(676.5 204.1)"><tspan x="0" y="0">keras</tspan></text>
            </g>
          </g>
          <g id="text1636" class="cls-3">
            <g class="cls-3">
              <text class="cls-6" transform="translate(662.1 133.9)"><tspan x="0" y="0">pynumdiff</tspan></text>
            </g>
          </g>
          <g id="text1640" class="cls-3">
            <g class="cls-3">
              <text class="cls-6" transform="translate(665.7 366.6)"><tspan x="0" y="0">pybounds</tspan></text>
            </g>
          </g>
          <g>
            <g id="text1644" class="cls-3">
              <g class="cls-3">
                <text class="cls-6" transform="translate(676.5 408.6)"><tspan x="0" y="0">numpy</tspan></text>
              </g>
            </g>
            <g id="text1648" class="cls-3">
              <g class="cls-3">
                <text class="cls-6" transform="translate(672.9 421.9)"><tspan x="0" y="0">pandas</tspan></text>
              </g>
            </g>
            <g id="text1652" class="cls-3">
              <g class="cls-3">
                <text class="cls-6" transform="translate(658.5 435.2)"><tspan x="0" y="0">matplotlib</tspan></text>
              </g>
            </g>
            <g id="text1656" class="cls-3">
              <g class="cls-3">
                <text class="cls-6" transform="translate(672.9 448.4)"><tspan x="0" y="0">casadi</tspan></text>
              </g>
            </g>
            <g id="text1660" class="cls-3">
              <g class="cls-3">
                <text class="cls-6" transform="translate(672.9 461.7)"><tspan x="0" y="0">do-mpc</tspan></text>
              </g>
            </g>
          </g>
          <g>
            <rect id="rect1662" class="cls-7" x="279" y="51.6" width="158.5" height="21.6" rx="3" ry="3"/>
            <g id="text1664" class="cls-3">
              <g class="cls-3">
                <text class="cls-5" transform="translate(287.9 67.4)"><tspan x="0" y="0">Reduced order models</tspan></text>
              </g>
            </g>
          </g>
          <g>
            <rect id="rect1666" class="cls-7" x="246.8" y="80.5" width="222.9" height="21.6" rx="3" ry="3"/>
            <g id="text1668" class="cls-3">
              <g class="cls-3">
                <text class="cls-5" transform="translate(255.2 96.3)"><tspan x="0" y="0">Data driven models (SINDy, ANN)</tspan></text>
              </g>
            </g>
          </g>
          <g>
            <rect id="rect1674" class="cls-7" x="237.4" y="157.1" width="241.7" height="21.6" rx="3" ry="3"/>
            <g id="text1676" class="cls-3">
              <g class="cls-3">
                <text class="cls-5" transform="translate(245.3 172.9)"><tspan x="0" y="0">Augmented Information Kalman filter</tspan></text>
              </g>
            </g>
          </g>
          <g>
            <rect id="rect1678" class="cls-7" x="265.7" y="185.5" width="185.1" height="21.6" rx="3" ry="3"/>
            <g id="text1680" class="cls-3">
              <g class="cls-3">
                <text class="cls-5" transform="translate(275.3 201.3)"><tspan x="0" y="0">Artificial neural nets (ANN)</tspan></text>
              </g>
            </g>
          </g>
          <g>
            <rect id="rect1682" class="cls-8" x="277.4" y="225.5" width="164.9" height="21.6" rx="3" ry="3"/>
            <g id="text1684" class="cls-3">
              <g class="cls-3">
                <text class="cls-5" transform="translate(285.9 241.3)"><tspan x="0" y="0">Generating training data</tspan></text>
              </g>
            </g>
          </g>
          <g>
            <path id="rect1706" class="cls-7" d="M262,383h198.8c1.7,0,3.1,1.3,3.1,3v15.6c0,1.7-1.4,3-3.1,3h-198.8c-1.7,0-3.1-1.3-3.1-3v-15.6c0-1.7,1.4-3,3.1-3Z"/>
            <g id="text1708" class="cls-3">
              <g class="cls-3">
                <text class="cls-5" transform="translate(262.3 396.6)"><tspan x="0" y="0">Analytic Nonlinear Observability</tspan></text>
              </g>
            </g>
          </g>
          <g>
            <g id="text1712" class="cls-3">
              <g class="cls-3">
                <text class="cls-4" transform="translate(81.6 439.1)"><tspan x="0" y="0">Foundations</tspan></text>
              </g>
            </g>
            <g id="text1712-2" class="cls-3">
              <g class="cls-3">
                <text class="cls-4" transform="translate(81.6 439.1)"><tspan x="0" y="0">Foundations</tspan></text>
              </g>
            </g>
            <g id="text1712-3" class="cls-3">
              <g class="cls-3">
                <text class="cls-4" transform="translate(81.6 439.1)"><tspan x="0" y="0">Foundations</tspan></text>
              </g>
            </g>
            <rect id="rect1710" class="cls-16" x="74.4" y="421.8" width="561.1" height="44.4" rx="3" ry="3"/>
            <g id="text1712-4" class="cls-3">
              <g class="cls-3">
                <text class="cls-4" transform="translate(81.6 439.1)"><tspan x="0" y="0">Foundations:</tspan></text>
              </g>
              <text/>
              <g class="cls-3">
                <text class="cls-5" transform="translate(174.1 439.1)"><tspan x="0" y="0">simulating dynamics, least squares, Cramer Rao bound,</tspan></text>
              </g>
            </g>
            <g class="cls-3">
              <g class="cls-3">
                <text class="cls-5" transform="translate(86.5 458.4)"><tspan x="0" y="0">linear Kalman filter, linear observability Gramian,</tspan></text>
              </g>
            </g>
          </g>
          <path class="cls-17" d="M0,0"/>
          <path class="cls-17" d="M0,0"/>
          <path class="cls-17" d="M0,0"/>
          <path class="cls-17" d="M0,0"/>
          <path class="cls-17" d="M0,0"/>
          <path class="cls-17" d="M0,0"/>
          <path class="cls-17" d="M0,0"/>
          <g>
            <rect id="rect1698" class="cls-7" x="239.3" y="326.9" width="237.9" height="21.6" rx="3" ry="3"/>
            <g id="text1700" class="cls-3">
              <g class="cls-3">
                <text class="cls-5" transform="translate(245.6 341.8)"><tspan x="0" y="0">Extended &amp; Unscented Kalman filter</tspan></text>
              </g>
            </g>
            <path id="line1730" class="cls-17" d="M244.6,319.8"/>
          </g>
          <path class="cls-17" d="M0,0"/>
          <g>
            <path id="rect1702" class="cls-7" d="M255.6,354.6h210.5c1.7,0,3.1,1.3,3.1,3v15.6c0,1.7-1.4,3-3.1,3h-210.5c-1.7,0-3.1-1.3-3.1-3v-15.6c0-1.7,1.4-3,3.1-3Z"/>
            <g id="text1704" class="cls-3">
              <g class="cls-3">
                <text class="cls-5" transform="translate(257.6 368.8)"><tspan x="0" y="0">Empirical Nonlinear Observability</tspan></text>
              </g>
            </g>
            <path id="line1732" class="cls-17" d="M293,346.8"/>
          </g>
          <path class="cls-17" d="M0,0"/>
          <path id="line1734" class="cls-17" d="M358.2,371.8"/>
          <path class="cls-17" d="M0,0"/>
          <path class="cls-17" d="M0,0"/>
          <path id="line1738" class="cls-17" d="M358.2,301.8"/>
          <path class="cls-17" d="M0,0"/>
          <path class="cls-17" d="M0,0"/>
          <g>
            <rect id="rect1686" class="cls-13" x="175.6" y="269.2" width="324" height="21.7" rx="3" ry="3"/>
            <g id="text1688" class="cls-3">
              <g class="cls-3">
                <text class="cls-5" transform="translate(299.9 283.8)"><tspan x="0" y="0" xml:space="preserve">f(x,u),  h(x,u)</tspan></text>
              </g>
            </g>
            <rect id="rect1690" class="cls-12" x="75.5" y="269.2" width="41.5" height="21.7" rx="3" ry="3"/>
            <g id="text1692" class="cls-3">
              <g class="cls-3">
                <text class="cls-4" transform="translate(80.9 283.4)"><tspan x="0" y="0">Data</tspan></text>
              </g>
            </g>
            <rect id="rect1694" class="cls-13" x="556.6" y="268.1" width="84.3" height="23.8" rx="3" ry="3"/>
            <g id="text1696" class="cls-3">
              <g class="cls-3">
                <text class="cls-4" transform="translate(562.6 283.4)"><tspan x="0" y="0">Estimators</tspan></text>
              </g>
            </g>
            <path id="line1736" class="cls-17" d="M535.6,280"/>
            <path id="line1740" class="cls-17" d="M175.6,280"/>
            <g id="text1712-5" class="cls-3">
              <g class="cls-3">
                <text class="cls-4" transform="translate(181.9 283.4)"><tspan x="0" y="0">Models</tspan></text>
              </g>
            </g>
          </g>
          <g>
            <line class="cls-10" x1="229.5" y1="337.1" x2="201.3" y2="337.1"/>
            <polygon class="cls-18" points="239.2 337.1 225.5 331.5 228.7 337.1 225.5 342.7 239.2 337.1"/>
          </g>
          <g>
            <line class="cls-10" x1="242.8" y1="366" x2="201.6" y2="366"/>
            <polygon class="cls-18" points="252.5 366 238.8 360.4 242.1 366 238.8 371.6 252.5 366"/>
          </g>
          <g>
            <line class="cls-10" x1="249.1" y1="393.7" x2="201" y2="393.7"/>
            <polygon class="cls-18" points="258.8 393.7 245.1 388.1 248.4 393.7 245.1 399.3 258.8 393.7"/>
          </g>
          <line class="cls-10" x1="201" y1="393.7" x2="201" y2="291.6"/>
          <line class="cls-10" x1="477.4" y1="337.7" x2="593.9" y2="337.7"/>
          <line class="cls-10" x1="468.9" y1="365.3" x2="593.2" y2="365.3"/>
          <line class="cls-11" x1="463.7" y1="393.6" x2="594.3" y2="393.6"/>
          <g>
            <line class="cls-10" x1="594.3" y1="393.6" x2="594.3" y2="302.5"/>
            <polygon class="cls-18" points="594.3 292.7 599.9 306.5 594.3 303.2 588.7 306.5 594.3 292.7"/>
          </g>
          <line class="cls-10" x1="95.4" y1="269.6" x2="95.4" y2="61.3"/>
          <g>
            <line class="cls-10" x1="269.3" y1="61.7" x2="95.4" y2="61.7"/>
            <polygon class="cls-18" points="279.1 61.7 265.3 56.1 268.6 61.7 265.3 67.3 279.1 61.7"/>
          </g>
          <g>
            <line class="cls-10" x1="267.6" y1="236.1" x2="96" y2="236.1"/>
            <polygon class="cls-18" points="277.3 236.1 263.6 230.5 266.9 236.1 263.6 241.7 277.3 236.1"/>
          </g>
          <g>
            <line class="cls-10" x1="255.8" y1="196" x2="95.5" y2="196"/>
            <polygon class="cls-18" points="265.5 196 251.8 190.4 255.1 196 251.8 201.6 265.5 196"/>
          </g>
          <g>
            <line class="cls-10" x1="227.7" y1="167.4" x2="95.5" y2="167.4"/>
            <polygon class="cls-18" points="237.4 167.4 223.7 161.8 227 167.4 223.7 173 237.4 167.4"/>
          </g>
          <g>
            <line class="cls-10" x1="237.1" y1="90.3" x2="96" y2="90.3"/>
            <polygon class="cls-18" points="246.8 90.3 233.1 84.7 236.3 90.3 233.1 95.9 246.8 90.3"/>
          </g>
          <g>
            <line class="cls-10" x1="243.9" y1="268.9" x2="243.9" y2="188.5"/>
            <polygon class="cls-18" points="243.9 178.7 249.5 192.5 243.9 189.2 238.3 192.5 243.9 178.7"/>
          </g>
          <g>
            <line class="cls-10" x1="594.3" y1="258.7" x2="594.3" y2="62.6"/>
            <polygon class="cls-18" points="594.3 268.5 599.9 254.7 594.3 258 588.7 254.7 594.3 268.5"/>
          </g>
          <line class="cls-10" x1="437.5" y1="62.2" x2="594.3" y2="62.2"/>
          <line class="cls-10" x1="469.6" y1="91.3" x2="594.3" y2="91.3"/>
          <line class="cls-10" x1="478.9" y1="167.9" x2="594.3" y2="167.9"/>
          <line class="cls-10" x1="450.8" y1="196" x2="594.3" y2="196"/>
          <g>
            <line class="cls-10" x1="356.9" y1="225.6" x2="356.9" y2="217.1"/>
            <polygon class="cls-18" points="356.9 207.4 362.5 221.1 356.9 217.8 351.3 221.1 356.9 207.4"/>
          </g>
          <circle class="cls-14" cx="243.9" cy="236.3" r=".8"/>
          <circle class="cls-14" cx="243.9" cy="196" r=".8"/>
          <g>
            <rect id="rect1682-2" class="cls-9" x="257" y="119.9" width="202.5" height="21.6" rx="3" ry="3"/>
            <g id="text1684-2" class="cls-3">
              <g class="cls-3">
                <text class="cls-5" transform="translate(265.4 135.7)"><tspan x="0" y="0">Naive numerical differentiation</tspan></text>
              </g>
            </g>
          </g>
          <g>
            <line class="cls-10" x1="246.6" y1="129.8" x2="96.6" y2="129.8"/>
            <polygon class="cls-18" points="256.3 129.8 242.6 124.2 245.9 129.8 242.6 135.4 256.3 129.8"/>
          </g>
          <g>
            <line class="cls-10" x1="356.9" y1="120" x2="356.9" y2="111.5"/>
            <polygon class="cls-18" points="356.9 101.8 362.5 115.5 356.9 112.2 351.3 115.5 356.9 101.8"/>
          </g>
          <g id="text1640-2" class="cls-3">
            <g class="cls-3">
              <text class="cls-6" transform="translate(676.5 394.5)"><tspan x="0" y="0">sympy</tspan></text>
            </g>
          </g>
          <g>
            <line class="cls-10" x1="485.1" y1="62.3" x2="485.1" y2="260.1"/>
            <polygon class="cls-18" points="485.1 269.8 479.5 256.1 485.1 259.4 490.7 256.1 485.1 269.8"/>
          </g>
          <circle class="cls-14" cx="485.1" cy="196" r=".8"/>
          <circle class="cls-14" cx="485.1" cy="167.9" r=".8"/>
        </g>
      </g>
    </g>
  </g>
</svg>